# xmcd
#
# Track frame offsets: 
#        150
#        19242
#        35828
#        62063
#        84089
#        98717
#        114487
#        137020
#        151773
#
# Disc length: 2309 seconds
#
# Revision: 0
# Processed by: cddbd v1.5.2PL0 Copyright (c) Steve Scherf et al.
# Submitted via: ExactAudioCopyFreeDBPlugin 1.0
#
DISCID=68090309
DTITLE=Bill Withers - 1977 - Menagerie
DYEAR=1977
DGENRE=
TTITLE0=Lovely Day
TTITLE1=I Want to Spend the Night
TTITLE2=Lovely Night for Dancing
TTITLE3=Then You Smile at Me
TTITLE4=She Wants To (Get On Down)
TTITLE5=It Ain't Because of Me Baby
TTITLE6=Tender Things
TTITLE7=Wintertime
TTITLE8=Let Me Be the One You Need
EXTD=
EXTT0=
EXTT1=
EXTT2=
EXTT3=
EXTT4=
EXTT5=
EXTT6=
EXTT7=
EXTT8=
PLAYORDER=
